# xmcd
#
# Track frame offsets:
#	150
#	16766
#	32275
#	52192
#	70097
#	85915
#	100180
#	114202
#	134450
#	150300
#	163881
#	182311
#
# Disc length: 2660 seconds
#
# Revision: 0
# Processed by: cddbd v1.5PL3 Copyright (c) Steve Scherf et al.
# Submitted via: dBpowerAMP V4.0
#
DISCID=870a620c
DTITLE=Brad Martin - Brad Martin
DYEAR=1900
DGENRE=
TTITLE0=Stealing Home
TTITLE1=I Love Her, She Hates Me, I Drink
TTITLE2=I've Never Been Anywhere
TTITLE3=One Of Those Days
TTITLE4=She Let Herself Go
TTITLE5=The Man I Am
TTITLE6=Devils On My Shoulders
TTITLE7=Hard Headed
TTITLE8=Why Can't We All Just Get A Longneck
TTITLE9=Little Bit Loco
TTITLE10=What Do I Believe In Now
TTITLE11=Ready To Learn
EXTD=
EXTT0=
EXTT1=
EXTT2=
EXTT3=
EXTT4=
EXTT5=
EXTT6=
EXTT7=
EXTT8=
EXTT9=
EXTT10=
EXTT11=
PLAYORDER=
